<svg fill="#fff" viewBox="0 0 24 25" xmlns="http://www.w3.org/2000/svg"><path d="M16.512 12.5c0-1.203-.43-2.234-1.289-3.094-.859-.86-1.89-1.289-3.093-1.289s-2.235.43-3.094 1.29c-.86.859-1.29 1.89-1.29 3.093s.43 2.234 1.29 3.094c.86.86 1.89 1.289 3.094 1.289 1.203 0 2.234-.43 3.093-1.29.86-.859 1.29-1.89 1.29-3.093zM20.31.5H4.02c-1 0-1.828.332-2.484.996C.88 2.16.552 3.008.552 4.04v4.64H6.34a9.63 9.63 0 012.496-2.331 5.893 5.893 0 013.293-.973c1.203 0 2.32.324 3.351.973 1.032.648 1.867 1.425 2.508 2.332h5.86V4.39a4.072 4.072 0 00-.997-2.718C22.188.89 21.341.5 20.31.5zm1.782 4.664a.551.551 0 01-.153.41.554.554 0 01-.41.153h-2.344a.554.554 0 01-.41-.153.554.554 0 01-.152-.41V2.82c0-.172.05-.308.152-.41a.554.554 0 01.41-.152h2.344a.55.55 0 01.41.152.554.554 0 01.153.41v2.344zm-2.907 5.86h4.594v9.585c0 1.032-.32 1.938-.96 2.72-.641.78-1.477 1.171-2.509 1.171H4.02c-1 0-1.828-.332-2.484-.996C.88 22.84.552 21.992.552 20.96v-9.938h4.664l-.094.739a5.764 5.764 0 00-.047.738c0 .984.184 1.91.55 2.777a7.188 7.188 0 001.512 2.274 6.989 6.989 0 004.993 2.074 6.989 6.989 0 004.992-2.074 7.188 7.188 0 001.512-2.274 7.05 7.05 0 00.55-2.777l.006-.38.018-.393c.015-.266.008-.5-.024-.704z" /></svg>
