<svg fill="#fff" viewBox="0 0 25 25" xmlns="http://www.w3.org/2000/svg"><path d="M12.8.5c1.656 0 3.21.316 4.664.95a12.242 12.242 0 013.809 2.577 12.242 12.242 0 012.578 3.809c.633 1.453.949 3.008.949 4.664 0 1.656-.316 3.21-.95 4.664a12.242 12.242 0 01-2.577 3.809 12.242 12.242 0 01-3.809 2.578c-1.453.633-3.008.949-4.664.949-1.656 0-3.21-.316-4.664-.95a12.242 12.242 0 01-3.809-2.577 12.242 12.242 0 01-2.578-3.809C1.116 15.711.8 14.156.8 12.5c0-1.656.316-3.21.95-4.664a12.242 12.242 0 012.577-3.809A12.242 12.242 0 018.136 1.45C9.589.816 11.144.5 12.8.5zm2.86 6.281h-1.83c-.734 0-1.347.281-1.84.844-.492.563-.738 1.234-.738 2.016v1.101H9.308v1.899h1.945v5.578h2.133V12.64h2.273v-1.899h-2.273V9.453c0-.203.05-.363.152-.48.102-.118.2-.176.293-.176h1.828V6.78z" /></svg>
